<?xml version="1.0" encoding="iso-8859-1"?>
<!-- Generator: Adobe Illustrator 19.0.0, SVG Export Plug-In . SVG Version: 6.00 Build 0)  -->
<svg version="1.1" id="Capa_1" xmlns="http://www.w3.org/2000/svg" xmlns:xlink="http://www.w3.org/1999/xlink" x="0px" y="0px"
	 viewBox="0 0 512 512" style="enable-background:new 0 0 512 512;" xml:space="preserve">
<path style="fill:#87D2F3;" d="M96,394.667c-29.455,0-53.333,23.878-53.333,53.333V64c0-29.455,23.878-53.333,53.333-53.333h10.667
	v384H96z"/>
<g>
	<path style="fill:#FFFFFF;" d="M170.667,160h234.667v42.667H170.667V160z"/>
	<path style="fill:#FFFFFF;" d="M170.667,74.667h234.667V128H170.667V74.667z"/>
	<path style="fill:#FFFFFF;" d="M469.333,448v53.333H96c-29.455,0-53.333-23.878-53.333-53.333S66.545,394.667,96,394.667h373.333
		V448z"/>
</g>
<path style="fill:#87D2F3;" d="M170.667,160v42.667h234.667V160H170.667z M405.333,128V74.667H170.667V128H405.333z M469.333,10.667
	v384H106.667v-384H469.333z"/>
<g>
	<path style="fill:#2170A6;" d="M469.333,0H96C60.668,0.035,32.035,28.668,32,64v384c0.035,35.332,28.668,63.965,64,64h373.333
		c5.891,0,10.667-4.776,10.667-10.667V10.667C480,4.776,475.224,0,469.333,0z M458.667,384H117.333V21.333h341.333V384z M96,21.333
		V384c-15.765,0.004-30.969,5.858-42.667,16.427V64C53.333,40.436,72.436,21.333,96,21.333z M96,490.667
		c-23.564,0-42.667-19.103-42.667-42.667c0-23.564,19.103-42.667,42.667-42.667h362.667v32h-288v21.333h288v32H96z"/>
	<path style="fill:#2170A6;" d="M181.333,85.333h213.333V128H416V74.667C416,68.776,411.224,64,405.333,64H170.667
		C164.776,64,160,68.776,160,74.667V128h21.333V85.333z"/>
	<path style="fill:#2170A6;" d="M170.667,213.333h234.667c5.891,0,10.667-4.776,10.667-10.667v-53.333H160v53.333
		C160,208.558,164.776,213.333,170.667,213.333z M394.667,170.667V192H181.333v-21.333H394.667z"/>
	<path style="fill:#2170A6;" d="M160,245.333h21.333v21.333H160V245.333z"/>
	<path style="fill:#2170A6;" d="M202.667,245.333H224v21.333h-21.333V245.333z"/>
	<path style="fill:#2170A6;" d="M288,245.333h128v21.333H288V245.333z"/>
	<path style="fill:#2170A6;" d="M128,437.333h21.333v21.333H128V437.333z"/>
</g>
<g>
</g>
<g>
</g>
<g>
</g>
<g>
</g>
<g>
</g>
<g>
</g>
<g>
</g>
<g>
</g>
<g>
</g>
<g>
</g>
<g>
</g>
<g>
</g>
<g>
</g>
<g>
</g>
<g>
</g>
</svg>
