<?xml version="1.0" encoding="iso-8859-1"?>
<!-- Generator: Adobe Illustrator 19.0.0, SVG Export Plug-In . SVG Version: 6.00 Build 0)  -->
<svg version="1.1" id="Capa_1" xmlns="http://www.w3.org/2000/svg" xmlns:xlink="http://www.w3.org/1999/xlink" x="0px" y="0px"
	 viewBox="0 0 480 480" style="enable-background:new 0 0 480 480;" xml:space="preserve">
<path style="fill:#29485A;" d="M280,480c-26.499-0.026-47.974-21.501-48-48V0h16v432c0,17.673,14.327,32,32,32s32-14.327,32-32v-24
	h16v24C327.974,458.499,306.499,479.974,280,480z"/>
<path style="fill:#06AAE9;" d="M24,250c0-29.823,24.177-54,54-54s54,24.177,54,54c0-29.823,24.177-54,54-54s54,24.177,54,54
	c0-29.823,24.177-54,54-54s54,24.177,54,54c0-29.823,24.177-54,54-54s54,24.177,54,54v-2c0-119.294-96.706-216-216-216
	S24,128.706,24,248V250z"/>
<g>
</g>
<g>
</g>
<g>
</g>
<g>
</g>
<g>
</g>
<g>
</g>
<g>
</g>
<g>
</g>
<g>
</g>
<g>
</g>
<g>
</g>
<g>
</g>
<g>
</g>
<g>
</g>
<g>
</g>
</svg>
